name Walk6.mot
datacolumns 19
datarows 15
range 2.93500000 2.94900000
endheader

                time	   L_ground_force_vx	   L_ground_force_vy	   L_ground_force_vz	   L_ground_force_px	   L_ground_force_py	   L_ground_force_pz	   R_ground_force_vx	   R_ground_force_vy	   R_ground_force_vz	   R_ground_force_px	   R_ground_force_py	   R_ground_force_pz	   L_ground_torque_x	   L_ground_torque_y	   L_ground_torque_z	   R_ground_torque_x	   R_ground_torque_y	   R_ground_torque_z	
          2.93500000	         -7.37740334	        757.36249950	        -51.41858609	          0.13849031	          0.00000000	          0.13475151	          0.00000000	          0.00000000	          0.00000000	          0.00000000	          0.00000000	          0.00000000	          0.00000000	         12.36979638	          0.00000000	          0.00000000	          0.00000000	          0.00000000	
          2.93600000	         -7.02371097	        756.21451712	        -51.18832235	          0.13859606	          0.00000000	          0.13489124	          0.00000000	          0.00000000	          0.00000000	          0.00000000	          0.00000000	          0.00000000	          0.00000000	         12.28267988	          0.00000000	          0.00000000	          0.00000000	          0.00000000	
          2.93700000	         -6.64777470	        755.02293404	        -50.98338948	          0.13875514	          0.00000000	          0.13502842	          0.00000000	          0.00000000	          0.00000000	          0.00000000	          0.00000000	          0.00000000	          0.00000000	         12.19331558	          0.00000000	          0.00000000	          0.00000000	          0.00000000	
          2.93800000	         -6.26671102	        753.83869886	        -50.80514528	          0.13898731	          0.00000000	          0.13514942	          0.00000000	          0.00000000	          0.00000000	          0.00000000	          0.00000000	          0.00000000	          0.00000000	         12.10773286	          0.00000000	          0.00000000	          0.00000000	          0.00000000	
          2.93900000	         -5.89516322	        752.68768305	        -50.64417707	          0.13925588	          0.00000000	          0.13524379	          0.00000000	          0.00000000	          0.00000000	          0.00000000	          0.00000000	          0.00000000	          0.00000000	         12.02783192	          0.00000000	          0.00000000	          0.00000000	          0.00000000	
          2.94000000	         -5.54128754	        751.53759790	        -50.48651582	          0.13947527	          0.00000000	          0.13530319	          0.00000000	          0.00000000	          0.00000000	          0.00000000	          0.00000000	          0.00000000	          0.00000000	         11.95331384	          0.00000000	          0.00000000	          0.00000000	          0.00000000	
          2.94100000	         -5.20528956	        750.34348909	        -50.32223253	          0.13958552	          0.00000000	          0.13532852	          0.00000000	          0.00000000	          0.00000000	          0.00000000	          0.00000000	          0.00000000	          0.00000000	         11.88481450	          0.00000000	          0.00000000	          0.00000000	          0.00000000	
          2.94200000	         -4.88102962	        749.11597369	        -50.15538063	          0.13961939	          0.00000000	          0.13533716	          0.00000000	          0.00000000	          0.00000000	          0.00000000	          0.00000000	          0.00000000	          0.00000000	         11.82367301	          0.00000000	          0.00000000	          0.00000000	          0.00000000	
          2.94300000	         -4.55823397	        747.89822178	        -50.00016175	          0.13966124	          0.00000000	          0.13535359	          0.00000000	          0.00000000	          0.00000000	          0.00000000	          0.00000000	          0.00000000	          0.00000000	         11.77002623	          0.00000000	          0.00000000	          0.00000000	          0.00000000	
          2.94400000	         -4.22665691	        746.70325398	        -49.86522343	          0.13975633	          0.00000000	          0.13539516	          0.00000000	          0.00000000	          0.00000000	          0.00000000	          0.00000000	          0.00000000	          0.00000000	         11.72186601	          0.00000000	          0.00000000	          0.00000000	          0.00000000	
          2.94500000	         -3.88043907	        745.51666395	        -49.74827809	          0.13989546	          0.00000000	          0.13546963	          0.00000000	          0.00000000	          0.00000000	          0.00000000	          0.00000000	          0.00000000	          0.00000000	         11.67301189	          0.00000000	          0.00000000	          0.00000000	          0.00000000	
          2.94600000	         -3.51448675	        744.32301678	        -49.64227796	          0.14005250	          0.00000000	          0.13557301	          0.00000000	          0.00000000	          0.00000000	          0.00000000	          0.00000000	          0.00000000	          0.00000000	         11.61513070	          0.00000000	          0.00000000	          0.00000000	          0.00000000	
          2.94700000	         -3.12427993	        743.10558959	        -49.54294997	          0.14020892	          0.00000000	          0.13568797	          0.00000000	          0.00000000	          0.00000000	          0.00000000	          0.00000000	          0.00000000	          0.00000000	         11.54556984	          0.00000000	          0.00000000	          0.00000000	          0.00000000	
          2.94800000	         -2.71550877	        741.84311220	        -49.45095640	          0.14035751	          0.00000000	          0.13579646	          0.00000000	          0.00000000	          0.00000000	          0.00000000	          0.00000000	          0.00000000	          0.00000000	         11.46833872	          0.00000000	          0.00000000	          0.00000000	          0.00000000	
          2.94900000	         -2.30429014	        740.52417408	        -49.36375962	          0.14048961	          0.00000000	          0.13589869	          0.00000000	          0.00000000	          0.00000000	          0.00000000	          0.00000000	          0.00000000	          0.00000000	         11.38697335	          0.00000000	          0.00000000	          0.00000000	          0.00000000	
